{"title":"Network-720p MP4 AAC x264 BRRip 1976-CC","uid":7380499,"size":2025462986,"categoryP":"video","categoryS":"hd___movies","magnet":"?xt=urn:btih:5425ac309da807c456cb3c95fa32ee0f874f3141&amp;dn=Network-720p+MP4+AAC+x264+BRRip+1976-CC&amp;tr=udp%3A%2F%2Ftracker.openbittorrent.com%3A80&amp;tr=udp%3A%2F%2Fopen.demonii.com%3A1337&amp;tr=udp%3A%2F%2Ftracker.coppersurfer.tk%3A6969&amp;tr=udp%3A%2F%2Fexodus.desync.com%3A6969","seeders":0,"leechers":3,"uploader":"Caveman44","files":-1,"time":1340484743,"description":" &lt;a href=&quot;http://www.imdb.com/title/tt0074958/&quot; rel=&quot;nofollow&quot; target=&quot;_NEW&quot;&gt;http://www.imdb.com/title/tt0074958/&lt;/a&gt;\n\nSource: Network.1976.720p.BluRay.x264-SiNNERS\n\nSubs: Arabic, Brazilian, Bulgarian, Chinese, Danish, Dutch, English, Finnish, French, German, Greek, Hungarian, Italian, Portuguese and Spanish.\n\nSample and Screens included.\n\nGeneral\nComplete name                    : Network-720p MP4 AAC x264 BRRip 1976-CC.mp4\nFormat                           : MPEG-4\nFormat profile                   : Base Media\nCodec ID                         : isom\nFile size                        : 1.86 GiB\nDuration                         : 2h 1mn\nOverall bit rate                 : 2 193 Kbps\nEncoded date                     : UTC 2012-06-22 09:08:37\n\nVideo\nID                               : 1\nFormat                           : AVC\nFormat/Info                      : Advanced Video Codec\nFormat profile                   : &lt;a class=&quot;__cf_email__&quot; href=&quot;/cdn-cgi/l/email-protection&quot; data-cfemail=&quot;feb6979996beb2cdd0cf&quot;&gt;[email&amp;#160;protected]&lt;/a&gt;&lt;script cf-hash='f9e31' type=&quot;text/javascript&quot;&gt;\n/* &lt;![CDATA[ */!function(){try{var t=&quot;currentScript&quot;in document?document.currentScript:function(){for(var t=document.getElementsByTagName(&quot;script&quot;),e=t.length;e--;)if(t[e].getAttribute(&quot;cf-hash&quot;))return t[e]}();if(t&amp;&amp;t.previousSibling){var e,r,n,i,c=t.previousSibling,a=c.getAttribute(&quot;data-cfemail&quot;);if(a){for(e=&quot;&quot;,r=parseInt(a.substr(0,2),16),n=2;a.length-n;n+=2)i=parseInt(a.substr(n,2),16)^r,e+=String.fromCharCode(i);e=document.createTextNode(e),c.parentNode.replaceChild(e,c)}}}catch(u){}}();/* ]]&gt; */&lt;/script&gt;\nFormat settings, CABAC           : Yes\nFormat settings, ReFrames        : 5 frames\nCodec ID                         : avc1\nCodec ID/Info                    : Advanced Video Coding\nDuration                         : 2h 1mn\nBit rate mode                    : Variable\nBit rate                         : 2 038 Kbps\nMaximum bit rate                 : 12.9 Mbps\nWidth                            : 1 280 pixels\nHeight                           : 720 pixels\nDisplay aspect ratio             : 16:9\nFrame rate mode                  : Variable\nFrame rate                       : 23.976 fps\nMinimum frame rate               : 19.048 fps\nMaximum frame rate               : 24.390 fps\nResolution                       : 24 bits\nColorimetry                      : 4:2:0\nScan type                        : Progressive\nBits/(Pixel*Frame)               : 0.092\nStream size                      : 1.72 GiB (92%)\nWriting library                  : x264 core 112\n\nAudio\nID                               : 2\nFormat                           : AAC\nFormat/Info                      : Advanced Audio Codec\nFormat version                   : Version 4\nFormat profile                   : LC\nFormat settings, SBR             : No\nFormat settings, PS              : Yes\nCodec ID                         : 40\nDuration                         : 2h 1mn\nBit rate mode                    : Variable\nBit rate                         : 160 Kbps\nMaximum bit rate                 : 203 Kbps\nChannel(s)                       : 2 channels\nChannel positions                : Front: L R\nSampling rate                    : 48.0 KHz\nResolution                       : 16 bits\nStream size                      : 139 MiB (7%)\nLanguage                         : English\n\nEnjoy...\n\nRequested by DreamExtractor and varuneric.","torrent":{"xt":"urn:btih:5425ac309da807c456cb3c95fa32ee0f874f3141","amp;dn":"Network-720p+MP4+AAC+x264+BRRip+1976-CC","amp;tr":["udp%3A%2F%2Ftracker.openbittorrent.com%3A80","udp%3A%2F%2Fopen.demonii.com%3A1337","udp%3A%2F%2Ftracker.coppersurfer.tk%3A6969","udp%3A%2F%2Fexodus.desync.com%3A6969"],"infoHash":"5425ac309da807c456cb3c95fa32ee0f874f3141","infoHashBuffer":{"type":"Buffer","data":[84,37,172,48,157,168,7,196,86,203,60,149,250,50,238,15,135,79,49,65]},"announce":[],"urlList":[]}}